<svg xmlns="http://www.w3.org/2000/svg" xmlns:xlink="http://www.w3.org/1999/xlink"><symbol id="android-logo" viewBox="0 0 43 47"><g fill="none">
  <path fill="#A4C639" fill-rule="evenodd" d="M31.48 4.77a10.4 10.4 0 0 1 3.26 7.29H8.17a10.44 10.44 0 0 1 3.29-7.36L8.96.46a.31.31 0 0 1 .11-.42.33.33 0 0 1 .43.15l2.38 4.11A16.98 16.98 0 0 1 21.46.9c3.5.1 6.87 1.3 9.63 3.4L33.5.15c.04-.07.1-.12.18-.14a.32.32 0 0 1 .24.03.32.32 0 0 1 .17.2.3.3 0 0 1-.05.26l-2.57 4.27ZM14.94 5.79a1.49 1.49 0 0 0 0 2.12 1.55 1.55 0 0 0 2.17 0 1.49 1.49 0 0 0 0-2.12 1.55 1.55 0 0 0-2.17 0Zm11.38 0a1.49 1.49 0 0 0 0 2.12 1.55 1.55 0 0 0 2.17 0 1.49 1.49 0 0 0 0-2.12 1.55 1.55 0 0 0-2.17 0Zm-18.2 8.27h26.77c0 .12.02.23.03.34v18.8c0 .9-.34 1.8-.97 2.46a3.7 3.7 0 0 1-2.43 1.16v7.46a2.87 2.87 0 0 1-.92 1.93 2.99 2.99 0 0 1-4.05 0c-.55-.5-.88-1.2-.92-1.93v-7.44h-8.24v7.44a2.87 2.87 0 0 1-.92 1.93 2.99 2.99 0 0 1-4.05 0c-.55-.5-.88-1.2-.92-1.93v-7.46a3.7 3.7 0 0 1-2.43-1.16 3.56 3.56 0 0 1-.96-2.46V14.06Zm-3.1 2.54A2.97 2.97 0 0 0 0 18.63v12.4c0 .77.31 1.5.86 2.05a2.98 2.98 0 0 0 4.82-.94 3 3 0 0 0 .22-1.1V18.62c0-.77-.31-1.5-.87-2.04Zm35.03-.85a2.93 2.93 0 0 1 2.94 2.89v12.4a2.84 2.84 0 0 1-.86 2.05 2.95 2.95 0 0 1-2.08.85c-.79 0-1.54-.3-2.1-.85a2.87 2.87 0 0 1-.86-2.05v-12.4a2.84 2.84 0 0 1 .87-2.04 2.95 2.95 0 0 1 2.09-.85Z"/>
</g></symbol><symbol id="apple-logo" viewBox="0 0 47 56"><g fill="none">
  <path fill="#FFF" d="M39.24 29.74c.01 2.41.75 4.77 2.13 6.79A12.67 12.67 0 0 0 47 41.06a29.8 29.8 0 0 1-4 7.96c-2.4 3.42-4.9 6.82-8.84 6.9-3.94.1-5.1-2.21-9.53-2.21-4.44 0-5.8 2.15-9.46 2.29-3.67.13-6.7-3.72-9.1-7.12-4.95-6.9-8.75-19.63-3.66-28.2 1.2-2.07 2.93-3.8 5.03-5.03a14.49 14.49 0 0 1 6.93-1.98c3.73-.07 7.25 2.43 9.53 2.43 2.28 0 6.56-3.01 11.06-2.57 2.08.08 4.12.62 5.95 1.58 1.84.96 3.41 2.32 4.61 3.98-.27.16-6.3 3.57-6.24 10.65h-.04Zm-7.26-20.8a12.06 12.06 0 0 0 3-8.94c-3.3.3-6.36 1.82-8.55 4.24-1.86 2.1-3.5 5.45-3.05 8.66 3.25.25 6.55-1.6 8.57-3.94l.03-.02Z"/>
</g></symbol><symbol id="arrow-right" viewBox="0 0 22 41"><g fill="none">
  <path fill="#283645" d="M19.96 20.5.26 39.59a.82.82 0 0 0-.26.58.8.8 0 0 0 .25.59.86.86 0 0 0 .61.24.88.88 0 0 0 .6-.24l20.29-19.67a.83.83 0 0 0 .25-.59.8.8 0 0 0-.25-.59L1.47.24A.9.9 0 0 0 .38.14a.81.81 0 0 0-.13 1.27l19.7 19.09Z" opacity="1"/>
</g></symbol><symbol id="check-no" viewBox="0 0 27 27"><g fill="none">
  <path fill="#F25B26" d="M15.64 13.5 26.55 2.6a1.5 1.5 0 0 0 0-2.14 1.52 1.52 0 0 0-2.14 0l-10.9 10.92L2.59.45A1.5 1.5 0 0 0 0 1.52c0 .4.16.78.44 1.07L11.37 13.5.45 24.4A1.5 1.5 0 0 0 1.52 27c.4 0 .78-.16 1.07-.44L13.5 15.65l10.9 10.9a1.52 1.52 0 0 0 1.91.2 1.51 1.51 0 0 0 .23-2.33L15.65 13.5Z"/>
</g></symbol><symbol id="check-yes" viewBox="0 0 31 21"><g fill="none">
  <path fill="#3DC644" d="M30.56.43a1.54 1.54 0 0 0-1.1-.43 1.6 1.6 0 0 0-1.08.43l-18 17.07-7.8-7.39a1.58 1.58 0 0 0-2.13.04c-.28.26-.44.62-.45 1 0 .37.14.74.41 1.01l8.88 8.41a1.53 1.53 0 0 0 1.08.43c.41 0 .8-.15 1.09-.43l19.1-18.09a1.42 1.42 0 0 0 0-2.05Z"/>
</g></symbol><symbol id="contrast" viewBox="0 0 32 32"><g fill="none">
  <path fill="currentColor" fill-rule="evenodd" d="M7.11 2.7A16 16 0 1 1 24.9 29.3 16 16 0 0 1 7.1 2.7Zm15.56 3.32A12 12 0 1 0 9.33 25.98 12 12 0 0 0 22.67 6.02ZM21.64 21.6A8.52 8.52 0 0 1 16 24.3v-17a8.52 8.52 0 0 1 5.64 14.31Z"/>
</g></symbol><symbol id="crop" viewBox="0 0 44 44"><g fill="none">
  <path fill="currentColor" d="M32 28h4V12a4 4 0 0 0-4-4H16v4h16v16Zm-20 4V0H8v8H0v4h8v20a4 4 0 0 0 4 4h20v8h4v-8h8v-4H12Z"/>
</g></symbol><symbol id="facebook" viewBox="0 0 9 18"><g fill="none">
  <path fill="#D22856" d="M6.5 3.2H9V0H6.02C2.76.17 1.6 2.27 2.08 5.82H0v3.33h2.08V18h3.94V9.15h2.96V5.82H6c-.02-1-.04-2.3.5-2.63Z"/>
</g></symbol><symbol id="fill" viewBox="0 0 48 43"><g fill="none">
  <path fill="currentColor" fill-rule="evenodd" d="m15.24 0 17.88 17.88a3 3 0 0 1 0 4.24l-11 11a3 3 0 0 1-4.24 0l-11-11a3 3 0 0 1 0-4.24L17.17 7.59l-4.76-4.76L15.24 0ZM20 10.42 10.41 20h19.18L20 10.42ZM34 30c0-2.67 4-7 4-7s4 4.33 4 7a4 4 0 1 1-8 0ZM0 40h48v3H0v-3Z"/>
</g></symbol><symbol id="heart" viewBox="0 0 13 12"><g fill="none">
  <path fill="#D22856" d="M6.47 12a.78.78 0 0 1-.58-.25C1.96 7.42 1.04 6.44.86 6.17A3.77 3.77 0 0 1 0 3.8c0-.73.22-1.44.63-2.05.4-.6.99-1.1 1.67-1.4A4.1 4.1 0 0 1 6.51.9a4.08 4.08 0 0 1 5.34.22A3.73 3.73 0 0 1 13 3.8a3.4 3.4 0 0 1-.92 2.38l-5.04 5.56a.76.76 0 0 1-.57.25V12Zm-4.4-6.72c.22.26 2.56 2.84 4.4 4.86l4.48-4.94c.36-.38.55-.88.54-1.4 0-.62-.26-1.21-.71-1.65a2.46 2.46 0 0 0-2.8-.43c-.35.16-.65.4-.88.69a.81.81 0 0 1-.61.28.76.76 0 0 1-.6-.3 2.43 2.43 0 0 0-1.95-.92 2.41 2.41 0 0 0-2.16 1.34 2.27 2.27 0 0 0 .3 2.46v.01Z"/>
</g></symbol><symbol id="htmlacademy" viewBox="0 0 27 34"><g fill="none">
  <path fill="currentColor" d="M13.64.02 13.5 0 0 1.4v24.61L13.5 34 27 26.01V1.41L13.64 0Zm11.6 25L13.5 31.96 1.77 25.02v-10.1l11.68 6.93.02 1.25-8.02-4.75v1.23l8.04 4.8.02 1.3-8.05-4.76v1.22l8.04 4.81 8.12-4.83V16.9l3.62-2.15v10.26Zm0-11.57L22 15.33l-1.48.88-7.06-4.19-.01 1.23 6.04 3.57-.06.03-.13.07-.86.5-4.98-2.95-.01 1.22 3.93 2.33-.93.61-.02.01-2.97-1.74-.01 1.23 1.94 1.13-1.98 1.19L1.8 13.58l11.63-6.96 11.8 6.83Zm0-1.22L13.43 5.3 1.77 12.22V2.99L13.5 1.76 25.23 3v9.24Z"/>
</g></symbol><symbol id="microsoft-logo" viewBox="0 0 44 41"><g fill="none">
  <path fill="#F05423" d="M20.9 19.52H0V0h20.9v19.52Z"/>
  <path fill="#84C441" d="M44 19.52H23.1V0H44v19.52Z"/>
  <path fill="#2DABE2" d="M20.9 41H0V21.48h20.9V41Z"/>
  <path fill="#F9BC15" d="M44 41H23.1V21.48H44V41Z"/>
</g></symbol><symbol id="quotes" viewBox="0 0 79 63"><g fill="none">
  <path fill="#EFEFEF" fill-rule="evenodd" d="m30.84 0 4.3 6.97c-3.75 2.1-23.63 10.8-23.63 28.61 0 0 21.47-7.73 21.47 14 0 3.27-2.76 13.42-14 13.42C.34 63 0 46.27 0 39.13 0 12.06 28.39 1.48 30.84 0Zm43.9 0L79 6.97c-3.69 2.1-23.6 10.8-23.6 28.61 0 0 21.46-7.73 21.46 14C76.86 52.85 74.1 63 62.87 63c-18.65 0-18.99-16.73-18.99-23.87C43.88 12.06 72.3 1.48 74.73 0Z"/>
</g></symbol><symbol id="twitter" viewBox="0 0 18 14"><g fill="none">
  <path fill="#D22856" d="M11.56.17a3.67 3.67 0 0 1 2.11-.03c.69.2 1.3.59 1.72 1.12.72-.2 1.42-.44 2.14-.65-.01.32-.1.63-.26.91a2.2 2.2 0 0 1-.65.73A1.8 1.8 0 0 0 18 1.8a2.85 2.85 0 0 1-1.66 1.9C16.1 9.97 12.97 14.17 5.65 14h-.5C4.7 14 .73 13.56 0 12.23a7.28 7.28 0 0 0 4.98-1.09c-1.03-.29-2.85-.45-3.16-2.74.4.13.81.16 1.22.08C1.76 7.71.34 7.04.42 5c.4.3.9.47 1.42.44C1.1 5.2-.25 2.31.9.83c1.92 1.72 3.96 3.35 7.59 3.5C8.7 2.22 9.69.79 11.56.18Z"/>
</g></symbol><symbol id="youtube" viewBox="0 0 15 13"><g fill="none">
  <path fill="#D22856" d="M1.83 12.8a1.25 1.25 0 0 1-1.28.04 1.1 1.1 0 0 1-.44-.46.97.97 0 0 1-.1-.6V1.22c-.03-.2 0-.41.1-.6C.2.42.35.27.55.16a1.26 1.26 0 0 1 1.28.03l12.4 5.5c1.03.45 1.03 1.17 0 1.62l-12.4 5.5Z"/>
</g></symbol></svg>