<svg viewBox="0 0 56 56" xmlns="http://www.w3.org/2000/svg" xmlns:xlink="http://www.w3.org/1999/xlink" width="56.000000" height="56.000000" fill="none">
	<rect id="garbage 1" width="56.000000" height="56.000000" x="0.000000" y="0.000000" fill="rgb(255,255,255)" fill-opacity="0" />
	<g id="Group">
		<path id="Vector" d="M40.4274 20.9547L40.7038 20.0617C40.2394 18.9886 39.1717 18.2376 37.9279 18.2376L35.2826 18.2376C33.7161 18.2376 32.428 19.4288 32.2744 20.9547L40.4274 20.9547Z" fill="rgb(250,198,0)" fill-rule="nonzero" />
		<path id="Vector" d="M35.5907 20.9547L35.5907 16.0338C35.5907 15.6957 35.3166 15.4216 34.9785 15.4216L27.5102 15.4216C27.1722 15.4216 26.8981 15.6957 26.8981 16.0338L26.8981 20.9547L35.5907 20.9547Z" fill="rgb(254,153,1)" fill-rule="nonzero" />
		<path id="Vector" d="M29.9167 20.9547L29.9167 16.0338C29.9167 15.6957 30.1908 15.4216 30.5289 15.4216L27.5102 15.4216C27.1722 15.4216 26.8981 15.6957 26.8981 16.0338L26.8981 20.9547L29.9167 20.9547Z" fill="rgb(251,136,1)" fill-rule="nonzero" />
		<path id="Vector" d="M15.8878 20.9547L23.4164 20.9547C23.1852 18.9431 21.4774 17.3806 19.4038 17.3806C17.6567 17.3806 16.1689 18.4895 15.6053 20.0419L15.8878 20.9547Z" fill="rgb(128,210,97)" fill-rule="nonzero" />
		<path id="Vector" d="M15.8878 20.9547L17.8553 20.9547C18.0386 19.36 19.15 18.0482 20.6361 17.5726C20.2476 17.4483 19.8336 17.3806 19.4039 17.3806C17.6568 17.3806 16.169 18.4895 15.6054 20.0419L15.8878 20.9547Z" fill="rgb(104,202,68)" fill-rule="nonzero" />
		<path id="Vector" d="M28.5531 20.9547C28.0418 19.3097 26.5076 18.1151 24.6944 18.1151C22.8812 18.1151 21.3469 19.3096 20.8356 20.9547L28.5531 20.9547Z" fill="rgb(0,167,211)" fill-rule="nonzero" />
		<path id="Vector" d="M23.5884 20.9547C23.9635 19.7483 24.8883 18.784 26.0704 18.3558C25.6409 18.2002 25.1776 18.1151 24.6944 18.1151C22.8811 18.1151 21.3468 19.3096 20.8355 20.9547L23.5884 20.9547Z" fill="rgb(0,150,211)" fill-rule="nonzero" />
		<g id="Group">
			<path id="Vector" d="M14.869 5.96664C15.1244 5.96664 15.3649 6.03117 15.5756 6.14416C15.787 5.89992 15.9576 5.5882 16.0567 5.22967C16.3331 4.22999 15.9551 3.25327 15.2126 3.04797C14.47 2.84267 13.644 3.48656 13.3676 4.48625C13.2184 5.02602 13.2613 5.55802 13.448 5.96664L14.869 5.96664Z" fill="rgb(216,236,254)" fill-rule="nonzero" />
			<path id="Vector" d="M12.888 5.96658L13.7038 5.96658C13.8918 5.4033 13.6746 4.64981 13.1037 4.07888C12.3703 3.34552 11.3342 3.19261 10.7894 3.73741C10.2446 4.2822 10.3975 5.31831 11.1309 6.05167C11.3194 6.24024 11.528 6.38964 11.743 6.49945C12.0185 6.17406 12.4293 5.96658 12.888 5.96658Z" fill="rgb(196,226,255)" fill-rule="nonzero" />
			<g id="Group">
				<path id="Vector" d="M12.888 9.07649L14.8691 9.07649C15.7544 9.07649 16.4787 8.3522 16.4787 7.46692C16.4787 6.58164 15.7544 5.85736 14.8691 5.85736L12.888 5.85736C12.0027 5.85736 11.2784 6.58164 11.2784 7.46692C11.2783 8.3522 12.0027 9.07649 12.888 9.07649Z" fill="rgb(90,90,90)" fill-rule="nonzero" />
			</g>
			<g id="Group">
				<path id="Vector" d="M13.1249 7.46679C13.1249 6.58151 13.8492 5.85712 14.7346 5.85712L12.888 5.85712C12.0027 5.85712 11.2784 6.58151 11.2784 7.46679C11.2784 8.35207 12.0027 9.07646 12.888 9.07646L14.7346 9.07646C13.8493 9.07646 13.1249 8.35218 13.1249 7.46679Z" fill="rgb(68,68,68)" fill-rule="nonzero" />
			</g>
		</g>
		<g id="Group">
			<path id="Vector" d="M46.0362 25.712C46.256 25.5855 46.51 25.512 46.7814 25.512L48.2327 25.512C48.3937 25.1134 48.4237 24.6102 48.2828 24.1004C48.0064 23.1008 47.1804 22.4569 46.4378 22.6622C45.6953 22.8675 45.3173 23.8442 45.5937 24.8439C45.6866 25.1803 45.8428 25.475 46.0362 25.712Z" fill="rgb(216,236,254)" fill-rule="nonzero" />
			<path id="Vector" d="M50.8609 23.3518C50.3162 22.807 49.28 22.9599 48.5467 23.6933C47.9989 24.241 47.7754 24.9575 47.9241 25.5122L48.7624 25.5122C49.2433 25.5122 49.6711 25.7405 49.9458 26.0936C50.1472 25.9859 50.3423 25.8434 50.5196 25.6661C51.2528 24.9327 51.4057 23.8965 50.8609 23.3518Z" fill="rgb(196,226,255)" fill-rule="nonzero" />
			<g id="Group">
				<path id="Vector" d="M48.7626 28.622L46.7814 28.622C45.8962 28.622 45.1719 27.8977 45.1719 27.0125C45.1719 26.1272 45.8962 25.4029 46.7814 25.4029L48.7626 25.4029C49.6478 25.4029 50.3721 26.1272 50.3721 27.0125C50.3721 27.8976 49.6478 28.622 48.7626 28.622Z" fill="rgb(90,90,90)" fill-rule="nonzero" />
			</g>
			<g id="Group">
				<path id="Vector" d="M47.0311 27.0123C47.0311 26.127 47.7554 25.4026 48.6408 25.4026L46.7814 25.4026C45.8961 25.4026 45.1718 26.1269 45.1718 27.0123C45.1718 27.8976 45.896 28.6219 46.7814 28.6219L48.6408 28.6219C47.7555 28.622 47.0311 27.8976 47.0311 27.0123Z" fill="rgb(68,68,68)" fill-rule="nonzero" />
			</g>
		</g>
		<g id="Group">
			<path id="Vector" d="M55.6303 29.1832C55.2519 28.9345 54.7432 29.0395 54.4942 29.418L50.7934 35.0475L41.6625 35.0475L41.6625 43.9352L44.7117 43.9352C44.989 43.9352 45.2146 44.1607 45.2146 44.438L45.2146 51.4591L52.0561 51.4591L52.0561 36.1131L55.865 30.3193C56.1139 29.9406 56.0088 29.432 55.6303 29.1832Z" fill="rgb(255,229,194)" fill-rule="nonzero" />
			<path id="Vector" d="M44.3539 43.8257L44.3539 35.8677C44.3539 35.4146 44.721 35.0474 45.1742 35.0474L41.6625 35.0474L41.6625 43.8257L44.3539 43.8257Z" fill="rgb(254,210,164)" fill-rule="nonzero" />
			<path id="Vector" d="M32.9454 51.4589L32.9454 44.4378C32.9454 44.1606 33.171 43.935 33.4482 43.935L41.7719 43.935L41.7719 21.7899L44.5772 12.726C44.7112 12.2932 44.4689 11.8338 44.0361 11.6998C43.6028 11.5658 43.1438 11.8081 43.0099 12.2409L40.3468 20.8454L15.9684 20.8454L13.3054 12.2409C13.1714 11.8081 12.7118 11.5658 12.2791 11.6998C11.8463 11.8338 11.604 12.2932 11.738 12.726L14.5433 21.7899L14.5433 51.4589L32.9454 51.4589Z" fill="rgb(255,179,146)" fill-rule="nonzero" />
			<g id="Group">
				<path id="Vector" d="M14.5433 21.7899L14.5433 29.6747L16.999 29.6747C17.2515 29.6747 17.4094 29.9482 17.2831 30.1669L15.3878 33.4497C16.7419 33.4602 18.0274 33.8309 19.139 34.4821L19.139 20.8454L15.9684 20.8454L13.3054 12.2409C13.1714 11.8081 12.7118 11.5658 12.2791 11.6998C11.8463 11.8338 11.604 12.2932 11.738 12.726L14.5433 21.7899Z" fill="rgb(255,163,129)" fill-rule="nonzero" />
			</g>
			<g id="Group">
				<path id="Vector" d="M13.5064 33.5579C13.508 33.5579 13.5094 33.5578 13.5109 33.5578L15.3253 33.5578L17.2831 30.1668C17.4095 29.9481 17.2515 29.6746 16.999 29.6746L11.8328 29.6746C11.5802 29.6746 11.4223 29.9481 11.5486 30.1668L13.5064 33.5579Z" fill="rgb(131,131,131)" fill-rule="nonzero" />
				<path id="Vector" d="M13.5064 33.5579C13.5079 33.5579 13.5093 33.5578 13.5109 33.5578L15.3254 33.5578L15.5411 33.1841L13.7991 30.1668C13.6727 29.9481 13.8307 29.6746 14.0832 29.6746L11.8327 29.6746C11.5801 29.6746 11.4222 29.9481 11.5486 30.1668L13.5064 33.5579Z" fill="rgb(90,90,90)" fill-rule="nonzero" />
				<path id="Vector" d="M4.46591 51.4589L18.7414 51.4589L18.5823 51.2775C18.0736 50.6973 17.8892 49.907 18.0891 49.1636L20.3337 40.8176C20.6538 39.6275 21.2996 38.591 22.158 37.7914C20.9347 35.1772 18.2922 33.4485 15.3288 33.4485L13.5109 33.4485C10.1001 33.4485 7.11398 35.7376 6.22816 39.0313L3.63673 48.6664C3.34962 49.734 3.72259 50.7899 4.46591 51.4589Z" fill="rgb(90,90,90)" fill-rule="nonzero" />
				<path id="Vector" d="M4.46591 51.4589L8.16125 51.4589C7.41794 50.7899 7.04486 49.734 7.33208 48.6664L9.9235 39.0312C10.727 36.0436 13.2587 33.8827 16.2676 33.5068C15.9591 33.4683 15.6458 33.4484 15.3287 33.4484L13.5108 33.4484C10.1 33.4484 7.11387 35.7375 6.22805 39.0312L3.63673 48.6664C3.34962 49.734 3.72259 50.7899 4.46591 51.4589Z" fill="rgb(68,68,68)" fill-rule="nonzero" />
			</g>
			<g id="Group">
				<path id="Vector" d="M26.5409 36.0627L28.0996 36.0627L29.7659 33.1767C29.8922 32.9579 29.7342 32.6845 29.4817 32.6845L25.1589 32.6845C24.9063 32.6845 24.7484 32.9579 24.8747 33.1767L26.5409 36.0627Z" fill="rgb(131,131,131)" fill-rule="nonzero" />
				<path id="Vector" d="M26.541 36.0627L28.0997 36.0627L28.3291 35.6652L26.8924 33.1767C26.766 32.9579 26.924 32.6845 27.1765 32.6845L25.1589 32.6845C24.9062 32.6845 24.7484 32.9579 24.8747 33.1767L26.541 36.0627Z" fill="rgb(90,90,90)" fill-rule="nonzero" />
				<path id="Vector" d="M32.9454 51.4589L32.9454 44.4378C32.9454 44.1605 33.171 43.935 33.4482 43.935L35.2701 43.935L34.4173 40.7807C33.647 37.9318 31.0623 35.9532 28.1111 35.9532L26.5365 35.9532C23.5821 35.9532 20.9954 37.9361 20.2282 40.7892L17.9834 49.1351C17.748 50.0108 18.0251 50.8773 18.6019 51.4589L32.9454 51.4589Z" fill="rgb(90,90,90)" fill-rule="nonzero" />
				<path id="Vector" d="M18.6017 51.4589L22.2492 51.4589C21.6725 50.8773 21.3953 50.0108 21.6308 49.1351L23.8755 40.7892C24.5515 38.2756 26.6398 36.4383 29.1474 36.0365C28.8087 35.9822 28.4626 35.9532 28.111 35.9532L26.5363 35.9532C23.582 35.9532 20.9953 37.9361 20.228 40.7892L17.9833 49.1351C17.7478 50.0108 18.0251 50.8773 18.6017 51.4589Z" fill="rgb(68,68,68)" fill-rule="nonzero" />
			</g>
			<path id="Vector" d="M45.3239 51.459L45.3239 44.4379C45.3239 44.0998 45.0498 43.8257 44.7118 43.8257L33.4481 43.8257C33.11 43.8257 32.8359 44.0998 32.8359 44.4379L32.8359 51.459L45.3239 51.459Z" fill="rgb(253,71,85)" fill-rule="nonzero" />
			<path id="Vector" d="M36.0745 51.459L36.0745 44.4379C36.0745 44.0998 36.3486 43.8257 36.6867 43.8257L33.4482 43.8257C33.1101 43.8257 32.836 44.0998 32.836 44.4379L32.836 51.459L36.0745 51.459Z" fill="rgb(251,43,58)" fill-rule="nonzero" />
			<g id="Group">
				<path id="Vector" d="M53.2207 52.9902L1.55475 52.9902C1.10161 52.9902 0.734436 52.623 0.734436 52.1699C0.734436 51.7169 1.10161 51.3496 1.55475 51.3496L53.2207 51.3496C53.6738 51.3496 54.041 51.7169 54.041 52.1699C54.041 52.623 53.6738 52.9902 53.2207 52.9902Z" fill="rgb(131,131,131)" fill-rule="nonzero" />
			</g>
		</g>
		<g id="Group">
			<path id="Vector" d="M10.6148 25.7844C10.1617 25.7844 9.79453 25.4171 9.79453 24.9641L9.79453 24.5266C9.79453 24.0735 10.1617 23.7062 10.6148 23.7062C11.068 23.7062 11.4352 24.0735 11.4352 24.5266L11.4352 24.9641C11.4352 25.4171 11.0679 25.7844 10.6148 25.7844ZM10.6148 22.6125C10.1617 22.6125 9.79453 22.2452 9.79453 21.7922L9.79453 21.3547C9.79453 20.9017 10.1617 20.5344 10.6148 20.5344C11.068 20.5344 11.4352 20.9017 11.4352 21.3547L11.4352 21.7922C11.4352 22.2452 11.0679 22.6125 10.6148 22.6125ZM10.1812 19.5103C9.88291 19.5103 9.59536 19.3471 9.45011 19.0633C9.39783 18.9611 9.33909 18.8605 9.27566 18.7644C9.02606 18.3862 9.13019 17.8774 9.5083 17.6278C9.88608 17.3781 10.3951 17.4823 10.6448 17.8604C10.7416 18.007 10.8312 18.1604 10.9109 18.3164C11.1172 18.7197 10.9574 19.2139 10.5539 19.4202C10.4344 19.4813 10.3068 19.5103 10.1812 19.5103ZM7.81834 17.5215C7.73817 17.5215 7.65658 17.5097 7.57575 17.4847C7.46539 17.4505 7.35219 17.4223 7.2392 17.4006C6.79437 17.3151 6.503 16.8852 6.58842 16.4402C6.67384 15.9953 7.10248 15.7039 7.54873 15.7894C7.72067 15.8224 7.89283 15.8654 8.0605 15.9172C8.4933 16.0511 8.73567 16.5105 8.6018 16.9433C8.49297 17.2954 8.16867 17.5215 7.81834 17.5215ZM4.66791 17.301C4.63028 17.301 4.59233 17.2984 4.55394 17.2931C4.38331 17.2694 4.21203 17.2369 4.04469 17.1966C3.60434 17.0903 3.33353 16.6471 3.43995 16.2066C3.54627 15.7663 3.98945 15.4954 4.42991 15.6018C4.54486 15.6296 4.66266 15.6519 4.7798 15.6682C5.22856 15.7305 5.54181 16.1448 5.47936 16.5936C5.42227 17.0039 5.07073 17.301 4.66791 17.301ZM1.93419 15.8271C1.70658 15.8271 1.48017 15.7329 1.31797 15.5486C1.20433 15.4194 1.09594 15.2835 0.99575 15.1444C0.730844 14.7768 0.814188 14.2641 1.1818 13.9993C1.5493 13.7345 2.06194 13.8178 2.32684 14.1854C2.39608 14.2815 2.471 14.3756 2.54975 14.4649C2.849 14.8051 2.81597 15.3234 2.4757 15.6227C2.31984 15.7597 2.12658 15.8271 1.93419 15.8271ZM0.820422 12.929C0.371875 12.929 0.00579688 12.5682 0.0004375 12.1184L0 12.0549C0.000109375 11.9034 0.0065625 11.7514 0.0191406 11.6026C0.0574219 11.1512 0.455 10.815 0.905625 10.8544C1.35712 10.8925 1.69203 11.2894 1.65397 11.7408C1.64522 11.8443 1.64073 11.9502 1.64062 12.0555L1.64084 12.0988C1.64631 12.5519 1.28341 12.9235 0.830484 12.9289C0.827203 12.929 0.823703 12.929 0.820422 12.929ZM1.86331 10.0049C1.67748 10.0049 1.49045 9.94206 1.33689 9.81343C0.989625 9.52239 0.944016 9.00504 1.23506 8.65778C1.34542 8.52609 1.46366 8.39823 1.58659 8.27781C1.90991 7.96073 2.42933 7.96576 2.74652 8.28951C3.06359 8.61304 3.05845 9.13246 2.73481 9.44954C2.65016 9.53256 2.56856 9.62071 2.49244 9.71161C2.33023 9.9052 2.09759 10.0049 1.86331 10.0049ZM4.5593 8.46571C4.16445 8.46571 3.81653 8.18003 3.75069 7.77764C3.67752 7.33051 3.9807 6.90887 4.42772 6.8357C4.59736 6.80803 4.77006 6.78823 4.94123 6.77707C5.39328 6.74732 5.78364 7.09032 5.81317 7.54237C5.84259 7.99442 5.49992 8.38489 5.04787 8.41431C4.92942 8.42196 4.80988 8.43564 4.69263 8.45489C4.64778 8.4621 4.60316 8.46571 4.5593 8.46571ZM8.16616 8.40643L7.72866 8.40643C7.27552 8.40643 6.90834 8.03915 6.90834 7.58612C6.90834 7.13309 7.27552 6.76581 7.72866 6.76581L8.16616 6.76581C8.6193 6.76581 8.98647 7.13309 8.98647 7.58612C8.98647 8.03915 8.6193 8.40643 8.16616 8.40643Z" fill="rgb(196,226,255)" fill-rule="nonzero" />
		</g>
	</g>
</svg>
